<svg xmlns="http://www.w3.org/2000/svg" viewBox="0 0 480 270">
  <defs><pattern id="studs" width="24" height="24" patternUnits="userSpaceOnUse"><circle cx="12" cy="12" r="5" fill="#ffffff" fill-opacity=".05"/></pattern></defs>
  <rect width="480" height="270" fill="#101826"/>
  <rect width="240" height="270" fill="#3b82f6" fill-opacity=".09"/>
  <rect x="240" width="240" height="270" fill="#ef4444" fill-opacity=".09"/>
  <rect width="480" height="270" fill="url(#studs)"/>
  <g fill="#ffffff" fill-opacity=".16">
    <rect x="236" y="6" width="8" height="18" rx="2"/><rect x="236" y="36" width="8" height="18" rx="2"/><rect x="236" y="66" width="8" height="18" rx="2"/>
    <rect x="236" y="96" width="8" height="18" rx="2"/><rect x="236" y="126" width="8" height="18" rx="2"/><rect x="236" y="156" width="8" height="18" rx="2"/>
    <rect x="236" y="186" width="8" height="18" rx="2"/><rect x="236" y="216" width="8" height="18" rx="2"/><rect x="236" y="246" width="8" height="18" rx="2"/>
  </g>
  <!-- block digits 3 : 2 -->
  <g fill="#60a5fa" fill-opacity=".6">
    <rect x="166" y="20" width="12" height="12" rx="3"/><rect x="180" y="20" width="12" height="12" rx="3"/><rect x="194" y="20" width="12" height="12" rx="3"/>
    <rect x="194" y="34" width="12" height="12" rx="3"/><rect x="166" y="48" width="12" height="12" rx="3"/><rect x="180" y="48" width="12" height="12" rx="3"/><rect x="194" y="48" width="12" height="12" rx="3"/>
    <rect x="194" y="62" width="12" height="12" rx="3"/><rect x="166" y="76" width="12" height="12" rx="3"/><rect x="180" y="76" width="12" height="12" rx="3"/><rect x="194" y="76" width="12" height="12" rx="3"/>
  </g>
  <g fill="#f87171" fill-opacity=".6">
    <rect x="274" y="20" width="12" height="12" rx="3"/><rect x="288" y="20" width="12" height="12" rx="3"/><rect x="302" y="20" width="12" height="12" rx="3"/>
    <rect x="302" y="34" width="12" height="12" rx="3"/><rect x="274" y="48" width="12" height="12" rx="3"/><rect x="288" y="48" width="12" height="12" rx="3"/><rect x="302" y="48" width="12" height="12" rx="3"/>
    <rect x="274" y="62" width="12" height="12" rx="3"/><rect x="274" y="76" width="12" height="12" rx="3"/><rect x="288" y="76" width="12" height="12" rx="3"/><rect x="302" y="76" width="12" height="12" rx="3"/>
  </g>
  <!-- paddles -->
  <g stroke="#1e3a8a" stroke-width="3">
    <rect x="40" y="96" width="22" height="110" rx="6" fill="#3b82f6"/>
  </g>
  <rect x="45" y="100" width="12" height="6" rx="2" fill="#ffffff" fill-opacity=".3"/>
  <g fill="#1d4ed8"><rect x="45" y="124" width="12" height="3"/><rect x="45" y="150" width="12" height="3"/><rect x="45" y="176" width="12" height="3"/></g>
  <g stroke="#7f1d1d" stroke-width="3">
    <rect x="418" y="140" width="22" height="110" rx="6" fill="#ef4444"/>
  </g>
  <rect x="423" y="144" width="12" height="6" rx="2" fill="#ffffff" fill-opacity=".3"/>
  <g fill="#b91c1c"><rect x="423" y="168" width="12" height="3"/><rect x="423" y="194" width="12" height="3"/><rect x="423" y="220" width="12" height="3"/></g>
  <!-- ball trail with a curve -->
  <g fill="#facc15">
    <rect x="96" y="150" width="6" height="6" opacity=".15"/><rect x="128" y="140" width="8" height="8" opacity=".22"/><rect x="162" y="134" width="10" height="10" opacity=".3"/>
    <rect x="198" y="132" width="12" height="12" opacity=".4"/><rect x="236" y="134" width="14" height="14" opacity=".5"/><rect x="274" y="140" width="16" height="16" opacity=".6"/>
  </g>
  <g transform="translate(330 160) rotate(20)">
    <rect x="-13" y="-13" width="26" height="26" rx="5" fill="#fb923c" stroke="#9a3412" stroke-width="3"/>
    <rect x="-8" y="-9" width="16" height="5" rx="2" fill="#ffffff" fill-opacity=".4"/>
  </g>
  <g fill="#fde68a"><rect x="72" y="140" width="6" height="6"/><rect x="80" y="128" width="5" height="5"/><rect x="76" y="168" width="5" height="5"/></g>
</svg>
