<svg xmlns="http://www.w3.org/2000/svg" viewBox="0 0 480 270">
  <defs><pattern id="studs" width="28" height="28" patternUnits="userSpaceOnUse"><circle cx="14" cy="14" r="5" fill="#fff" fill-opacity=".05"/></pattern></defs>
  <rect width="480" height="270" fill="#101a2e"/><rect width="480" height="270" fill="url(#studs)"/>
  <rect x="0" y="0" width="22" height="270" fill="#334155"/><rect x="458" y="0" width="22" height="270" fill="#334155"/>
  <g fill="#3f4d63"><rect x="3" y="4" width="16" height="40" rx="3"/><rect x="3" y="92" width="16" height="40" rx="3"/><rect x="3" y="180" width="16" height="40" rx="3"/><rect x="461" y="48" width="16" height="40" rx="3"/><rect x="461" y="136" width="16" height="40" rx="3"/><rect x="461" y="224" width="16" height="40" rx="3"/></g>
  <rect x="22" y="0" width="436" height="12" fill="#52607a"/><rect x="22" y="10" width="436" height="4" fill="#94a3b8"/>
  <circle cx="42" cy="32" r="17" fill="#a16207"/><circle cx="42" cy="30" r="14.5" fill="#facc15"/><circle cx="42" cy="32" r="7.5" fill="#000" fill-opacity=".18"/><circle cx="42" cy="30" r="7.5" fill="#facc15"/><ellipse cx="35" cy="24" rx="4" ry="2.4" fill="#fff" fill-opacity=".55" transform="rotate(-35 35 24)"/>
<circle cx="78" cy="32" r="17" fill="#a16207"/><circle cx="78" cy="30" r="14.5" fill="#facc15"/><circle cx="78" cy="32" r="7.5" fill="#000" fill-opacity=".18"/><circle cx="78" cy="30" r="7.5" fill="#facc15"/><ellipse cx="71" cy="24" rx="4" ry="2.4" fill="#fff" fill-opacity=".55" transform="rotate(-35 71 24)"/>
<circle cx="114" cy="32" r="17" fill="#1e40af"/><circle cx="114" cy="30" r="14.5" fill="#3b82f6"/><circle cx="114" cy="32" r="7.5" fill="#000" fill-opacity=".18"/><circle cx="114" cy="30" r="7.5" fill="#3b82f6"/><ellipse cx="107" cy="24" rx="4" ry="2.4" fill="#fff" fill-opacity=".55" transform="rotate(-35 107 24)"/>
<circle cx="150" cy="32" r="17" fill="#1e40af"/><circle cx="150" cy="30" r="14.5" fill="#3b82f6"/><circle cx="150" cy="32" r="7.5" fill="#000" fill-opacity=".18"/><circle cx="150" cy="30" r="7.5" fill="#3b82f6"/><ellipse cx="143" cy="24" rx="4" ry="2.4" fill="#fff" fill-opacity=".55" transform="rotate(-35 143 24)"/>
<circle cx="186" cy="32" r="17" fill="#991b1b"/><circle cx="186" cy="30" r="14.5" fill="#ef4444"/><circle cx="186" cy="32" r="7.5" fill="#000" fill-opacity=".18"/><circle cx="186" cy="30" r="7.5" fill="#ef4444"/><ellipse cx="179" cy="24" rx="4" ry="2.4" fill="#fff" fill-opacity=".55" transform="rotate(-35 179 24)"/>
<circle cx="222" cy="32" r="17" fill="#991b1b"/><circle cx="222" cy="30" r="14.5" fill="#ef4444"/><circle cx="222" cy="32" r="7.5" fill="#000" fill-opacity=".18"/><circle cx="222" cy="30" r="7.5" fill="#ef4444"/><ellipse cx="215" cy="24" rx="4" ry="2.4" fill="#fff" fill-opacity=".55" transform="rotate(-35 215 24)"/>
<circle cx="258" cy="32" r="17" fill="#15803d"/><circle cx="258" cy="30" r="14.5" fill="#22c55e"/><circle cx="258" cy="32" r="7.5" fill="#000" fill-opacity=".18"/><circle cx="258" cy="30" r="7.5" fill="#22c55e"/><ellipse cx="251" cy="24" rx="4" ry="2.4" fill="#fff" fill-opacity=".55" transform="rotate(-35 251 24)"/>
<circle cx="294" cy="32" r="17" fill="#15803d"/><circle cx="294" cy="30" r="14.5" fill="#22c55e"/><circle cx="294" cy="32" r="7.5" fill="#000" fill-opacity=".18"/><circle cx="294" cy="30" r="7.5" fill="#22c55e"/><ellipse cx="287" cy="24" rx="4" ry="2.4" fill="#fff" fill-opacity=".55" transform="rotate(-35 287 24)"/>
<circle cx="330" cy="32" r="17" fill="#6b21a8"/><circle cx="330" cy="30" r="14.5" fill="#a855f7"/><circle cx="330" cy="32" r="7.5" fill="#000" fill-opacity=".18"/><circle cx="330" cy="30" r="7.5" fill="#a855f7"/><ellipse cx="323" cy="24" rx="4" ry="2.4" fill="#fff" fill-opacity=".55" transform="rotate(-35 323 24)"/>
<circle cx="366" cy="32" r="17" fill="#a16207"/><circle cx="366" cy="30" r="14.5" fill="#facc15"/><circle cx="366" cy="32" r="7.5" fill="#000" fill-opacity=".18"/><circle cx="366" cy="30" r="7.5" fill="#facc15"/><ellipse cx="359" cy="24" rx="4" ry="2.4" fill="#fff" fill-opacity=".55" transform="rotate(-35 359 24)"/>
<circle cx="402" cy="32" r="17" fill="#a16207"/><circle cx="402" cy="30" r="14.5" fill="#facc15"/><circle cx="402" cy="32" r="7.5" fill="#000" fill-opacity=".18"/><circle cx="402" cy="30" r="7.5" fill="#facc15"/><ellipse cx="395" cy="24" rx="4" ry="2.4" fill="#fff" fill-opacity=".55" transform="rotate(-35 395 24)"/>
<circle cx="438" cy="32" r="17" fill="#1e40af"/><circle cx="438" cy="30" r="14.5" fill="#3b82f6"/><circle cx="438" cy="32" r="7.5" fill="#000" fill-opacity=".18"/><circle cx="438" cy="30" r="7.5" fill="#3b82f6"/><ellipse cx="431" cy="24" rx="4" ry="2.4" fill="#fff" fill-opacity=".55" transform="rotate(-35 431 24)"/>
<circle cx="60" cy="63" r="17" fill="#a16207"/><circle cx="60" cy="62" r="14.5" fill="#facc15"/><circle cx="60" cy="63" r="7.5" fill="#000" fill-opacity=".18"/><circle cx="60" cy="62" r="7.5" fill="#facc15"/><ellipse cx="53" cy="55" rx="4" ry="2.4" fill="#fff" fill-opacity=".55" transform="rotate(-35 53 55)"/>
<circle cx="96" cy="63" r="17" fill="#1e40af"/><circle cx="96" cy="62" r="14.5" fill="#3b82f6"/><circle cx="96" cy="63" r="7.5" fill="#000" fill-opacity=".18"/><circle cx="96" cy="62" r="7.5" fill="#3b82f6"/><ellipse cx="89" cy="55" rx="4" ry="2.4" fill="#fff" fill-opacity=".55" transform="rotate(-35 89 55)"/>
<circle cx="132" cy="63" r="17" fill="#1e40af"/><circle cx="132" cy="62" r="14.5" fill="#3b82f6"/><circle cx="132" cy="63" r="7.5" fill="#000" fill-opacity=".18"/><circle cx="132" cy="62" r="7.5" fill="#3b82f6"/><ellipse cx="125" cy="55" rx="4" ry="2.4" fill="#fff" fill-opacity=".55" transform="rotate(-35 125 55)"/>
<circle cx="168" cy="63" r="17" fill="#991b1b"/><circle cx="168" cy="62" r="14.5" fill="#ef4444"/><circle cx="168" cy="63" r="7.5" fill="#000" fill-opacity=".18"/><circle cx="168" cy="62" r="7.5" fill="#ef4444"/><ellipse cx="161" cy="55" rx="4" ry="2.4" fill="#fff" fill-opacity=".55" transform="rotate(-35 161 55)"/>
<circle cx="204" cy="63" r="17" fill="#15803d"/><circle cx="204" cy="62" r="14.5" fill="#22c55e"/><circle cx="204" cy="63" r="7.5" fill="#000" fill-opacity=".18"/><circle cx="204" cy="62" r="7.5" fill="#22c55e"/><ellipse cx="197" cy="55" rx="4" ry="2.4" fill="#fff" fill-opacity=".55" transform="rotate(-35 197 55)"/>
<circle cx="240" cy="63" r="17" fill="#15803d"/><circle cx="240" cy="62" r="14.5" fill="#22c55e"/><circle cx="240" cy="63" r="7.5" fill="#000" fill-opacity=".18"/><circle cx="240" cy="62" r="7.5" fill="#22c55e"/><ellipse cx="233" cy="55" rx="4" ry="2.4" fill="#fff" fill-opacity=".55" transform="rotate(-35 233 55)"/>
<circle cx="276" cy="63" r="17" fill="#15803d"/><circle cx="276" cy="62" r="14.5" fill="#22c55e"/><circle cx="276" cy="63" r="7.5" fill="#000" fill-opacity=".18"/><circle cx="276" cy="62" r="7.5" fill="#22c55e"/><ellipse cx="269" cy="55" rx="4" ry="2.4" fill="#fff" fill-opacity=".55" transform="rotate(-35 269 55)"/>
<circle cx="312" cy="63" r="17" fill="#6b21a8"/><circle cx="312" cy="62" r="14.5" fill="#a855f7"/><circle cx="312" cy="63" r="7.5" fill="#000" fill-opacity=".18"/><circle cx="312" cy="62" r="7.5" fill="#a855f7"/><ellipse cx="305" cy="55" rx="4" ry="2.4" fill="#fff" fill-opacity=".55" transform="rotate(-35 305 55)"/>
<circle cx="348" cy="63" r="17" fill="#6b21a8"/><circle cx="348" cy="62" r="14.5" fill="#a855f7"/><circle cx="348" cy="63" r="7.5" fill="#000" fill-opacity=".18"/><circle cx="348" cy="62" r="7.5" fill="#a855f7"/><ellipse cx="341" cy="55" rx="4" ry="2.4" fill="#fff" fill-opacity=".55" transform="rotate(-35 341 55)"/>
<circle cx="384" cy="63" r="17" fill="#a16207"/><circle cx="384" cy="62" r="14.5" fill="#facc15"/><circle cx="384" cy="63" r="7.5" fill="#000" fill-opacity=".18"/><circle cx="384" cy="62" r="7.5" fill="#facc15"/><ellipse cx="377" cy="55" rx="4" ry="2.4" fill="#fff" fill-opacity=".55" transform="rotate(-35 377 55)"/>
<circle cx="420" cy="63" r="17" fill="#1e40af"/><circle cx="420" cy="62" r="14.5" fill="#3b82f6"/><circle cx="420" cy="63" r="7.5" fill="#000" fill-opacity=".18"/><circle cx="420" cy="62" r="7.5" fill="#3b82f6"/><ellipse cx="413" cy="55" rx="4" ry="2.4" fill="#fff" fill-opacity=".55" transform="rotate(-35 413 55)"/>
<circle cx="42" cy="94" r="17" fill="#991b1b"/><circle cx="42" cy="93" r="14.5" fill="#ef4444"/><circle cx="42" cy="94" r="7.5" fill="#000" fill-opacity=".18"/><circle cx="42" cy="93" r="7.5" fill="#ef4444"/><ellipse cx="35" cy="86" rx="4" ry="2.4" fill="#fff" fill-opacity=".55" transform="rotate(-35 35 86)"/>
<circle cx="78" cy="94" r="17" fill="#991b1b"/><circle cx="78" cy="93" r="14.5" fill="#ef4444"/><circle cx="78" cy="94" r="7.5" fill="#000" fill-opacity=".18"/><circle cx="78" cy="93" r="7.5" fill="#ef4444"/><ellipse cx="71" cy="86" rx="4" ry="2.4" fill="#fff" fill-opacity=".55" transform="rotate(-35 71 86)"/>
<circle cx="114" cy="94" r="17" fill="#1e40af"/><circle cx="114" cy="93" r="14.5" fill="#3b82f6"/><circle cx="114" cy="94" r="7.5" fill="#000" fill-opacity=".18"/><circle cx="114" cy="93" r="7.5" fill="#3b82f6"/><ellipse cx="107" cy="86" rx="4" ry="2.4" fill="#fff" fill-opacity=".55" transform="rotate(-35 107 86)"/>
<circle cx="150" cy="94" r="17" fill="#6b21a8"/><circle cx="150" cy="93" r="14.5" fill="#a855f7"/><circle cx="150" cy="94" r="7.5" fill="#000" fill-opacity=".18"/><circle cx="150" cy="93" r="7.5" fill="#a855f7"/><ellipse cx="143" cy="86" rx="4" ry="2.4" fill="#fff" fill-opacity=".55" transform="rotate(-35 143 86)"/>
<circle cx="186" cy="94" r="17" fill="#6b21a8"/><circle cx="186" cy="93" r="14.5" fill="#a855f7"/><circle cx="186" cy="94" r="7.5" fill="#000" fill-opacity=".18"/><circle cx="186" cy="93" r="7.5" fill="#a855f7"/><ellipse cx="179" cy="86" rx="4" ry="2.4" fill="#fff" fill-opacity=".55" transform="rotate(-35 179 86)"/>
<circle cx="222" cy="94" r="17" fill="#15803d"/><circle cx="222" cy="93" r="14.5" fill="#22c55e"/><circle cx="222" cy="94" r="7.5" fill="#000" fill-opacity=".18"/><circle cx="222" cy="93" r="7.5" fill="#22c55e"/><ellipse cx="215" cy="86" rx="4" ry="2.4" fill="#fff" fill-opacity=".55" transform="rotate(-35 215 86)"/>
<circle cx="258" cy="94" r="17" fill="#991b1b"/><circle cx="258" cy="93" r="14.5" fill="#ef4444"/><circle cx="258" cy="94" r="7.5" fill="#000" fill-opacity=".18"/><circle cx="258" cy="93" r="7.5" fill="#ef4444"/><ellipse cx="251" cy="86" rx="4" ry="2.4" fill="#fff" fill-opacity=".55" transform="rotate(-35 251 86)"/>
<circle cx="294" cy="94" r="17" fill="#991b1b"/><circle cx="294" cy="93" r="14.5" fill="#ef4444"/><circle cx="294" cy="94" r="7.5" fill="#000" fill-opacity=".18"/><circle cx="294" cy="93" r="7.5" fill="#ef4444"/><ellipse cx="287" cy="86" rx="4" ry="2.4" fill="#fff" fill-opacity=".55" transform="rotate(-35 287 86)"/>
<circle cx="330" cy="94" r="17" fill="#6b21a8"/><circle cx="330" cy="93" r="14.5" fill="#a855f7"/><circle cx="330" cy="94" r="7.5" fill="#000" fill-opacity=".18"/><circle cx="330" cy="93" r="7.5" fill="#a855f7"/><ellipse cx="323" cy="86" rx="4" ry="2.4" fill="#fff" fill-opacity=".55" transform="rotate(-35 323 86)"/>
<circle cx="366" cy="94" r="17" fill="#a16207"/><circle cx="366" cy="93" r="14.5" fill="#facc15"/><circle cx="366" cy="94" r="7.5" fill="#000" fill-opacity=".18"/><circle cx="366" cy="93" r="7.5" fill="#facc15"/><ellipse cx="359" cy="86" rx="4" ry="2.4" fill="#fff" fill-opacity=".55" transform="rotate(-35 359 86)"/>
<circle cx="402" cy="94" r="17" fill="#a16207"/><circle cx="402" cy="93" r="14.5" fill="#facc15"/><circle cx="402" cy="94" r="7.5" fill="#000" fill-opacity=".18"/><circle cx="402" cy="93" r="7.5" fill="#facc15"/><ellipse cx="395" cy="86" rx="4" ry="2.4" fill="#fff" fill-opacity=".55" transform="rotate(-35 395 86)"/>
<circle cx="438" cy="94" r="17" fill="#991b1b"/><circle cx="438" cy="93" r="14.5" fill="#ef4444"/><circle cx="438" cy="94" r="7.5" fill="#000" fill-opacity=".18"/><circle cx="438" cy="93" r="7.5" fill="#ef4444"/><ellipse cx="431" cy="86" rx="4" ry="2.4" fill="#fff" fill-opacity=".55" transform="rotate(-35 431 86)"/>
<circle cx="60" cy="126" r="17" fill="#991b1b"/><circle cx="60" cy="124" r="14.5" fill="#ef4444"/><circle cx="60" cy="126" r="7.5" fill="#000" fill-opacity=".18"/><circle cx="60" cy="124" r="7.5" fill="#ef4444"/><ellipse cx="53" cy="118" rx="4" ry="2.4" fill="#fff" fill-opacity=".55" transform="rotate(-35 53 118)"/>
<circle cx="96" cy="126" r="17" fill="#6b21a8"/><circle cx="96" cy="124" r="14.5" fill="#a855f7"/><circle cx="96" cy="126" r="7.5" fill="#000" fill-opacity=".18"/><circle cx="96" cy="124" r="7.5" fill="#a855f7"/><ellipse cx="89" cy="118" rx="4" ry="2.4" fill="#fff" fill-opacity=".55" transform="rotate(-35 89 118)"/>
<circle cx="132" cy="126" r="17" fill="#6b21a8"/><circle cx="132" cy="124" r="14.5" fill="#a855f7"/><circle cx="132" cy="126" r="7.5" fill="#000" fill-opacity=".18"/><circle cx="132" cy="124" r="7.5" fill="#a855f7"/><ellipse cx="125" cy="118" rx="4" ry="2.4" fill="#fff" fill-opacity=".55" transform="rotate(-35 125 118)"/>
<circle cx="168" cy="126" r="17" fill="#1e40af"/><circle cx="168" cy="124" r="14.5" fill="#3b82f6"/><circle cx="168" cy="126" r="7.5" fill="#000" fill-opacity=".18"/><circle cx="168" cy="124" r="7.5" fill="#3b82f6"/><ellipse cx="161" cy="118" rx="4" ry="2.4" fill="#fff" fill-opacity=".55" transform="rotate(-35 161 118)"/>
<circle cx="204" cy="126" r="17" fill="#1e40af"/><circle cx="204" cy="124" r="14.5" fill="#3b82f6"/><circle cx="204" cy="126" r="7.5" fill="#000" fill-opacity=".18"/><circle cx="204" cy="124" r="7.5" fill="#3b82f6"/><ellipse cx="197" cy="118" rx="4" ry="2.4" fill="#fff" fill-opacity=".55" transform="rotate(-35 197 118)"/>
<circle cx="240" cy="126" r="17" fill="#991b1b"/><circle cx="240" cy="124" r="14.5" fill="#ef4444"/><circle cx="240" cy="126" r="7.5" fill="#000" fill-opacity=".18"/><circle cx="240" cy="124" r="7.5" fill="#ef4444"/><ellipse cx="233" cy="118" rx="4" ry="2.4" fill="#fff" fill-opacity=".55" transform="rotate(-35 233 118)"/>
<circle cx="276" cy="126" r="17" fill="#991b1b"/><circle cx="276" cy="124" r="14.5" fill="#ef4444"/><circle cx="276" cy="126" r="7.5" fill="#000" fill-opacity=".18"/><circle cx="276" cy="124" r="7.5" fill="#ef4444"/><ellipse cx="269" cy="118" rx="4" ry="2.4" fill="#fff" fill-opacity=".55" transform="rotate(-35 269 118)"/>
<circle cx="312" cy="126" r="17" fill="#a16207"/><circle cx="312" cy="124" r="14.5" fill="#facc15"/><circle cx="312" cy="126" r="7.5" fill="#000" fill-opacity=".18"/><circle cx="312" cy="124" r="7.5" fill="#facc15"/><ellipse cx="305" cy="118" rx="4" ry="2.4" fill="#fff" fill-opacity=".55" transform="rotate(-35 305 118)"/>
<circle cx="348" cy="126" r="17" fill="#a16207"/><circle cx="348" cy="124" r="14.5" fill="#facc15"/><circle cx="348" cy="126" r="7.5" fill="#000" fill-opacity=".18"/><circle cx="348" cy="124" r="7.5" fill="#facc15"/><ellipse cx="341" cy="118" rx="4" ry="2.4" fill="#fff" fill-opacity=".55" transform="rotate(-35 341 118)"/>
<circle cx="384" cy="126" r="17" fill="#15803d"/><circle cx="384" cy="124" r="14.5" fill="#22c55e"/><circle cx="384" cy="126" r="7.5" fill="#000" fill-opacity=".18"/><circle cx="384" cy="124" r="7.5" fill="#22c55e"/><ellipse cx="377" cy="118" rx="4" ry="2.4" fill="#fff" fill-opacity=".55" transform="rotate(-35 377 118)"/>
<circle cx="420" cy="126" r="17" fill="#15803d"/><circle cx="420" cy="124" r="14.5" fill="#22c55e"/><circle cx="420" cy="126" r="7.5" fill="#000" fill-opacity=".18"/><circle cx="420" cy="124" r="7.5" fill="#22c55e"/><ellipse cx="413" cy="118" rx="4" ry="2.4" fill="#fff" fill-opacity=".55" transform="rotate(-35 413 118)"/>
<circle cx="42" cy="157" r="17" fill="#15803d"/><circle cx="42" cy="155" r="14.5" fill="#22c55e"/><circle cx="42" cy="157" r="7.5" fill="#000" fill-opacity=".18"/><circle cx="42" cy="155" r="7.5" fill="#22c55e"/><ellipse cx="35" cy="149" rx="4" ry="2.4" fill="#fff" fill-opacity=".55" transform="rotate(-35 35 149)"/>
<circle cx="78" cy="157" r="17" fill="#15803d"/><circle cx="78" cy="155" r="14.5" fill="#22c55e"/><circle cx="78" cy="157" r="7.5" fill="#000" fill-opacity=".18"/><circle cx="78" cy="155" r="7.5" fill="#22c55e"/><ellipse cx="71" cy="149" rx="4" ry="2.4" fill="#fff" fill-opacity=".55" transform="rotate(-35 71 149)"/>
<circle cx="150" cy="157" r="17" fill="#1e40af"/><circle cx="150" cy="155" r="14.5" fill="#3b82f6"/><circle cx="150" cy="157" r="7.5" fill="#000" fill-opacity=".18"/><circle cx="150" cy="155" r="7.5" fill="#3b82f6"/><ellipse cx="143" cy="149" rx="4" ry="2.4" fill="#fff" fill-opacity=".55" transform="rotate(-35 143 149)"/>
<circle cx="258" cy="157" r="17" fill="#a16207"/><circle cx="258" cy="155" r="14.5" fill="#facc15"/><circle cx="258" cy="157" r="7.5" fill="#000" fill-opacity=".18"/><circle cx="258" cy="155" r="7.5" fill="#facc15"/><ellipse cx="251" cy="149" rx="4" ry="2.4" fill="#fff" fill-opacity=".55" transform="rotate(-35 251 149)"/>
<circle cx="294" cy="157" r="17" fill="#a16207"/><circle cx="294" cy="155" r="14.5" fill="#facc15"/><circle cx="294" cy="157" r="7.5" fill="#000" fill-opacity=".18"/><circle cx="294" cy="155" r="7.5" fill="#facc15"/><ellipse cx="287" cy="149" rx="4" ry="2.4" fill="#fff" fill-opacity=".55" transform="rotate(-35 287 149)"/>
<circle cx="366" cy="157" r="17" fill="#15803d"/><circle cx="366" cy="155" r="14.5" fill="#22c55e"/><circle cx="366" cy="157" r="7.5" fill="#000" fill-opacity=".18"/><circle cx="366" cy="155" r="7.5" fill="#22c55e"/><ellipse cx="359" cy="149" rx="4" ry="2.4" fill="#fff" fill-opacity=".55" transform="rotate(-35 359 149)"/>
  <line x1="22" y1="214" x2="458" y2="214" stroke="#ef4444" stroke-opacity=".6" stroke-width="2" stroke-dasharray="10 8"/>
  <circle cx="248" cy="204" r="3" fill="#a855f7" fill-opacity="0.82"/><circle cx="251" cy="195" r="3" fill="#a855f7" fill-opacity="0.78"/><circle cx="255" cy="186" r="3" fill="#a855f7" fill-opacity="0.74"/><circle cx="259" cy="177" r="3" fill="#a855f7" fill-opacity="0.70"/><circle cx="263" cy="168" r="3" fill="#a855f7" fill-opacity="0.66"/><circle cx="266" cy="159" r="3" fill="#a855f7" fill-opacity="0.62"/><circle cx="270" cy="150" r="3" fill="#a855f7" fill-opacity="0.58"/><circle cx="274" cy="141" r="3" fill="#a855f7" fill-opacity="0.54"/><circle cx="278" cy="132" r="3" fill="#a855f7" fill-opacity="0.50"/><circle cx="282" cy="123" r="3" fill="#a855f7" fill-opacity="0.46"/><circle cx="285" cy="114" r="3" fill="#a855f7" fill-opacity="0.42"/><circle cx="289" cy="105" r="3" fill="#a855f7" fill-opacity="0.38"/><circle cx="293" cy="96" r="3" fill="#a855f7" fill-opacity="0.34"/><circle cx="297" cy="87" r="3" fill="#a855f7" fill-opacity="0.30"/>
  <g transform="rotate(23 240 238)"><rect x="229" y="190" width="22" height="44" rx="4" fill="#cbd5e1"/></g>
  <rect x="194" y="246" width="92" height="30" rx="6" fill="#64748b"/><rect x="210" y="238" width="60" height="16" rx="5" fill="#94a3b8"/>
  <circle cx="240" cy="236" r="19" fill="#6b21a8"/><circle cx="240" cy="234.5" r="15.5" fill="#a855f7"/><circle cx="240" cy="235" r="7.5" fill="#6b21a8" fill-opacity=".5"/><circle cx="240" cy="233.5" r="7.5" fill="#a855f7"/>
  <g fill="#facc15"><rect x="330" y="150" width="10" height="10"/><rect x="352" y="138" width="8" height="8"/><rect x="318" y="132" width="7" height="7"/></g>
</svg>
