<svg xmlns="http://www.w3.org/2000/svg" viewBox="0 0 480 270">
<rect width="480" height="270" fill="#16181b"/>
<rect x="114.0" y="9.0" width="252" height="252" rx="14" fill="#22252a"/>
<rect x="144.0" y="39.0" width="36" height="36" rx="6" fill="#3b82f6"/><rect x="148.0" y="42.0" width="28" height="4" fill="#fff" fill-opacity=".22"/><circle cx="162.0" cy="57.0" r="7.2" fill="#fff" fill-opacity=".22"/>
<rect x="196.0" y="39.0" width="36" height="36" rx="6" fill="#3b82f6"/><rect x="200.0" y="42.0" width="28" height="4" fill="#fff" fill-opacity=".22"/><circle cx="214.0" cy="57.0" r="7.2" fill="#fff" fill-opacity=".22"/>
<rect x="144.0" y="91.0" width="36" height="36" rx="6" fill="#ef4444"/><rect x="148.0" y="94.0" width="28" height="4" fill="#fff" fill-opacity=".22"/><circle cx="162.0" cy="109.0" r="7.2" fill="#fff" fill-opacity=".22"/>
<rect x="248.0" y="143.0" width="36" height="36" rx="6" fill="#ef4444"/><rect x="252.0" y="146.0" width="28" height="4" fill="#fff" fill-opacity=".22"/><circle cx="266.0" cy="161.0" r="7.2" fill="#fff" fill-opacity=".22"/>
<rect x="300.0" y="143.0" width="36" height="36" rx="6" fill="#ef4444"/><rect x="304.0" y="146.0" width="28" height="4" fill="#fff" fill-opacity=".22"/><circle cx="318.0" cy="161.0" r="7.2" fill="#fff" fill-opacity=".22"/>
<rect x="300.0" y="195.0" width="36" height="36" rx="6" fill="#3b82f6"/><rect x="304.0" y="198.0" width="28" height="4" fill="#fff" fill-opacity=".22"/><circle cx="318.0" cy="213.0" r="7.2" fill="#fff" fill-opacity=".22"/>
<rect x="136.0" y="26.0" width="52" height="10" rx="3" fill="#3b82f6"/>
<rect x="188.0" y="26.0" width="52" height="10" rx="3" fill="#3b82f6"/>
<rect x="136.0" y="78.0" width="52" height="10" rx="3" fill="#ef4444"/>
<rect x="188.0" y="78.0" width="52" height="10" rx="3" fill="#3b82f6"/>
<rect x="136.0" y="130.0" width="52" height="10" rx="3" fill="#ef4444"/>
<rect x="240.0" y="130.0" width="52" height="10" rx="3" fill="#ef4444"/>
<rect x="292.0" y="130.0" width="52" height="10" rx="3" fill="#ef4444"/>
<rect x="240.0" y="182.0" width="52" height="10" rx="3" fill="#ef4444"/>
<rect x="292.0" y="182.0" width="52" height="10" rx="3" fill="#3b82f6"/>
<rect x="292.0" y="234.0" width="52" height="10" rx="3" fill="#3b82f6"/>
<rect x="136.0" y="234.0" width="52" height="10" rx="3" fill="#ef4444"/>
<rect x="292.0" y="26.0" width="52" height="10" rx="3" fill="#3b82f6"/>
<rect x="292.0" y="182.0" width="52" height="10" rx="3" fill="#3b82f6"/>
<rect x="131.0" y="31.0" width="10" height="52" rx="3" fill="#3b82f6"/>
<rect x="183.0" y="31.0" width="10" height="52" rx="3" fill="#3b82f6"/>
<rect x="235.0" y="31.0" width="10" height="52" rx="3" fill="#3b82f6"/>
<rect x="131.0" y="83.0" width="10" height="52" rx="3" fill="#ef4444"/>
<rect x="183.0" y="83.0" width="10" height="52" rx="3" fill="#ef4444"/>
<rect x="235.0" y="135.0" width="10" height="52" rx="3" fill="#ef4444"/>
<rect x="287.0" y="135.0" width="10" height="52" rx="3" fill="#ef4444"/>
<rect x="339.0" y="135.0" width="10" height="52" rx="3" fill="#ef4444"/>
<rect x="287.0" y="187.0" width="10" height="52" rx="3" fill="#3b82f6"/>
<rect x="339.0" y="187.0" width="10" height="52" rx="3" fill="#3b82f6"/>
<rect x="339.0" y="83.0" width="10" height="52" rx="3" fill="#ef4444"/>
<rect x="131.0" y="187.0" width="10" height="52" rx="3" fill="#3b82f6"/>
<rect x="188.0" y="182.0" width="52" height="10" rx="3" fill="#3b82f6" fill-opacity=".45"/>
<circle cx="136.0" cy="33.0" r="8" fill="#9ca3af"/><circle cx="136.0" cy="31.0" r="8" fill="#e5e7eb"/><circle cx="134.0" cy="29.0" r="2.5" fill="#fff"/>
<circle cx="188.0" cy="33.0" r="8" fill="#9ca3af"/><circle cx="188.0" cy="31.0" r="8" fill="#e5e7eb"/><circle cx="186.0" cy="29.0" r="2.5" fill="#fff"/>
<circle cx="240.0" cy="33.0" r="8" fill="#9ca3af"/><circle cx="240.0" cy="31.0" r="8" fill="#e5e7eb"/><circle cx="238.0" cy="29.0" r="2.5" fill="#fff"/>
<circle cx="292.0" cy="33.0" r="8" fill="#9ca3af"/><circle cx="292.0" cy="31.0" r="8" fill="#e5e7eb"/><circle cx="290.0" cy="29.0" r="2.5" fill="#fff"/>
<circle cx="344.0" cy="33.0" r="8" fill="#9ca3af"/><circle cx="344.0" cy="31.0" r="8" fill="#e5e7eb"/><circle cx="342.0" cy="29.0" r="2.5" fill="#fff"/>
<circle cx="136.0" cy="85.0" r="8" fill="#9ca3af"/><circle cx="136.0" cy="83.0" r="8" fill="#e5e7eb"/><circle cx="134.0" cy="81.0" r="2.5" fill="#fff"/>
<circle cx="188.0" cy="85.0" r="8" fill="#9ca3af"/><circle cx="188.0" cy="83.0" r="8" fill="#e5e7eb"/><circle cx="186.0" cy="81.0" r="2.5" fill="#fff"/>
<circle cx="240.0" cy="85.0" r="8" fill="#9ca3af"/><circle cx="240.0" cy="83.0" r="8" fill="#e5e7eb"/><circle cx="238.0" cy="81.0" r="2.5" fill="#fff"/>
<circle cx="292.0" cy="85.0" r="8" fill="#9ca3af"/><circle cx="292.0" cy="83.0" r="8" fill="#e5e7eb"/><circle cx="290.0" cy="81.0" r="2.5" fill="#fff"/>
<circle cx="344.0" cy="85.0" r="8" fill="#9ca3af"/><circle cx="344.0" cy="83.0" r="8" fill="#e5e7eb"/><circle cx="342.0" cy="81.0" r="2.5" fill="#fff"/>
<circle cx="136.0" cy="137.0" r="8" fill="#9ca3af"/><circle cx="136.0" cy="135.0" r="8" fill="#e5e7eb"/><circle cx="134.0" cy="133.0" r="2.5" fill="#fff"/>
<circle cx="188.0" cy="137.0" r="8" fill="#9ca3af"/><circle cx="188.0" cy="135.0" r="8" fill="#e5e7eb"/><circle cx="186.0" cy="133.0" r="2.5" fill="#fff"/>
<circle cx="240.0" cy="137.0" r="8" fill="#9ca3af"/><circle cx="240.0" cy="135.0" r="8" fill="#e5e7eb"/><circle cx="238.0" cy="133.0" r="2.5" fill="#fff"/>
<circle cx="292.0" cy="137.0" r="8" fill="#9ca3af"/><circle cx="292.0" cy="135.0" r="8" fill="#e5e7eb"/><circle cx="290.0" cy="133.0" r="2.5" fill="#fff"/>
<circle cx="344.0" cy="137.0" r="8" fill="#9ca3af"/><circle cx="344.0" cy="135.0" r="8" fill="#e5e7eb"/><circle cx="342.0" cy="133.0" r="2.5" fill="#fff"/>
<circle cx="136.0" cy="189.0" r="8" fill="#9ca3af"/><circle cx="136.0" cy="187.0" r="8" fill="#e5e7eb"/><circle cx="134.0" cy="185.0" r="2.5" fill="#fff"/>
<circle cx="188.0" cy="189.0" r="8" fill="#9ca3af"/><circle cx="188.0" cy="187.0" r="8" fill="#e5e7eb"/><circle cx="186.0" cy="185.0" r="2.5" fill="#fff"/>
<circle cx="240.0" cy="189.0" r="8" fill="#9ca3af"/><circle cx="240.0" cy="187.0" r="8" fill="#e5e7eb"/><circle cx="238.0" cy="185.0" r="2.5" fill="#fff"/>
<circle cx="292.0" cy="189.0" r="8" fill="#9ca3af"/><circle cx="292.0" cy="187.0" r="8" fill="#e5e7eb"/><circle cx="290.0" cy="185.0" r="2.5" fill="#fff"/>
<circle cx="344.0" cy="189.0" r="8" fill="#9ca3af"/><circle cx="344.0" cy="187.0" r="8" fill="#e5e7eb"/><circle cx="342.0" cy="185.0" r="2.5" fill="#fff"/>
<circle cx="136.0" cy="241.0" r="8" fill="#9ca3af"/><circle cx="136.0" cy="239.0" r="8" fill="#e5e7eb"/><circle cx="134.0" cy="237.0" r="2.5" fill="#fff"/>
<circle cx="188.0" cy="241.0" r="8" fill="#9ca3af"/><circle cx="188.0" cy="239.0" r="8" fill="#e5e7eb"/><circle cx="186.0" cy="237.0" r="2.5" fill="#fff"/>
<circle cx="240.0" cy="241.0" r="8" fill="#9ca3af"/><circle cx="240.0" cy="239.0" r="8" fill="#e5e7eb"/><circle cx="238.0" cy="237.0" r="2.5" fill="#fff"/>
<circle cx="292.0" cy="241.0" r="8" fill="#9ca3af"/><circle cx="292.0" cy="239.0" r="8" fill="#e5e7eb"/><circle cx="290.0" cy="237.0" r="2.5" fill="#fff"/>
<circle cx="344.0" cy="241.0" r="8" fill="#9ca3af"/><circle cx="344.0" cy="239.0" r="8" fill="#e5e7eb"/><circle cx="342.0" cy="237.0" r="2.5" fill="#fff"/>
<rect x="22" y="40" width="80" height="60" rx="10" fill="#3b82f6"/><rect x="28" y="44" width="68" height="7" fill="#fff" fill-opacity=".22"/><rect x="34" y="62" width="16" height="16" rx="3" fill="#fff"/><rect x="54" y="62" width="16" height="16" rx="3" fill="#fff"/><rect x="74" y="62" width="16" height="16" rx="3" fill="#fff"/>
<rect x="378" y="170" width="80" height="60" rx="10" fill="#ef4444"/><rect x="384" y="174" width="68" height="7" fill="#fff" fill-opacity=".22"/><rect x="399" y="192" width="16" height="16" rx="3" fill="#fff"/><rect x="421" y="192" width="16" height="16" rx="3" fill="#fff"/>
</svg>