<svg xmlns="http://www.w3.org/2000/svg" viewBox="0 0 480 270">
  <defs><pattern id="studs" width="28" height="28" patternUnits="userSpaceOnUse"><circle cx="14" cy="14" r="5" fill="#fff" fill-opacity=".035"/></pattern></defs>
  <rect width="480" height="270" fill="#14202b"/><rect width="480" height="270" fill="url(#studs)"/>
  <rect x="29.0" y="60" width="52" height="158" rx="14" fill="#fff" fill-opacity="0.06" stroke="#cbd5e1" stroke-opacity="0.55" stroke-width="3"/><rect x="24.0" y="55" width="62" height="10" rx="3" fill="#64748b"/><rect x="34.0" y="178" width="42" height="30" rx="5" fill="#ef4444"/><rect x="37.0" y="180" width="36" height="4" fill="#fff" fill-opacity=".2"/><rect x="37.0" y="202" width="36" height="4" fill="#000" fill-opacity=".2"/><circle cx="46.0" cy="193.0" r="5" fill="#fff" fill-opacity=".28"/><circle cx="64.0" cy="193.0" r="5" fill="#fff" fill-opacity=".28"/><rect x="34.0" y="144" width="42" height="30" rx="5" fill="#facc15"/><rect x="37.0" y="146" width="36" height="4" fill="#fff" fill-opacity=".2"/><rect x="37.0" y="168" width="36" height="4" fill="#000" fill-opacity=".2"/><circle cx="46.0" cy="159.0" r="5" fill="#fff" fill-opacity=".28"/><circle cx="64.0" cy="159.0" r="5" fill="#fff" fill-opacity=".28"/><rect x="34.0" y="110" width="42" height="30" rx="5" fill="#ef4444"/><rect x="37.0" y="112" width="36" height="4" fill="#fff" fill-opacity=".2"/><rect x="37.0" y="134" width="36" height="4" fill="#000" fill-opacity=".2"/><circle cx="46.0" cy="125.0" r="5" fill="#fff" fill-opacity=".28"/><circle cx="64.0" cy="125.0" r="5" fill="#fff" fill-opacity=".28"/><rect x="34.0" y="76" width="42" height="30" rx="5" fill="#38bdf8"/><rect x="37.0" y="78" width="36" height="4" fill="#fff" fill-opacity=".2"/><rect x="37.0" y="100" width="36" height="4" fill="#000" fill-opacity=".2"/><circle cx="46.0" cy="91.0" r="5" fill="#fff" fill-opacity=".28"/><circle cx="64.0" cy="91.0" r="5" fill="#fff" fill-opacity=".28"/><rect x="103.0" y="60" width="52" height="158" rx="14" fill="#22c55e" fill-opacity="0.14" stroke="#22c55e" stroke-opacity="1" stroke-width="3"/><rect x="98.0" y="55" width="62" height="10" rx="3" fill="#64748b"/><rect x="108.0" y="178" width="42" height="30" rx="5" fill="#fb923c"/><rect x="111.0" y="180" width="36" height="4" fill="#fff" fill-opacity=".2"/><rect x="111.0" y="202" width="36" height="4" fill="#000" fill-opacity=".2"/><circle cx="120.0" cy="193.0" r="5" fill="#fff" fill-opacity=".28"/><circle cx="138.0" cy="193.0" r="5" fill="#fff" fill-opacity=".28"/><rect x="108.0" y="144" width="42" height="30" rx="5" fill="#fb923c"/><rect x="111.0" y="146" width="36" height="4" fill="#fff" fill-opacity=".2"/><rect x="111.0" y="168" width="36" height="4" fill="#000" fill-opacity=".2"/><circle cx="120.0" cy="159.0" r="5" fill="#fff" fill-opacity=".28"/><circle cx="138.0" cy="159.0" r="5" fill="#fff" fill-opacity=".28"/><rect x="108.0" y="110" width="42" height="30" rx="5" fill="#fb923c"/><rect x="111.0" y="112" width="36" height="4" fill="#fff" fill-opacity=".2"/><rect x="111.0" y="134" width="36" height="4" fill="#000" fill-opacity=".2"/><circle cx="120.0" cy="125.0" r="5" fill="#fff" fill-opacity=".28"/><circle cx="138.0" cy="125.0" r="5" fill="#fff" fill-opacity=".28"/><rect x="108.0" y="76" width="42" height="30" rx="5" fill="#fb923c"/><rect x="111.0" y="78" width="36" height="4" fill="#fff" fill-opacity=".2"/><rect x="111.0" y="100" width="36" height="4" fill="#000" fill-opacity=".2"/><circle cx="120.0" cy="91.0" r="5" fill="#fff" fill-opacity=".28"/><circle cx="138.0" cy="91.0" r="5" fill="#fff" fill-opacity=".28"/><rect x="177.0" y="60" width="52" height="158" rx="14" fill="#fff" fill-opacity="0.06" stroke="#cbd5e1" stroke-opacity="0.55" stroke-width="3"/><rect x="172.0" y="55" width="62" height="10" rx="3" fill="#64748b"/><rect x="182.0" y="178" width="42" height="30" rx="5" fill="#38bdf8"/><rect x="185.0" y="180" width="36" height="4" fill="#fff" fill-opacity=".2"/><rect x="185.0" y="202" width="36" height="4" fill="#000" fill-opacity=".2"/><circle cx="194.0" cy="193.0" r="5" fill="#fff" fill-opacity=".28"/><circle cx="212.0" cy="193.0" r="5" fill="#fff" fill-opacity=".28"/><rect x="182.0" y="144" width="42" height="30" rx="5" fill="#ef4444"/><rect x="185.0" y="146" width="36" height="4" fill="#fff" fill-opacity=".2"/><rect x="185.0" y="168" width="36" height="4" fill="#000" fill-opacity=".2"/><circle cx="194.0" cy="159.0" r="5" fill="#fff" fill-opacity=".28"/><circle cx="212.0" cy="159.0" r="5" fill="#fff" fill-opacity=".28"/><rect x="182.0" y="70" width="42" height="30" rx="5" fill="#facc15"/><rect x="185.0" y="72" width="36" height="4" fill="#fff" fill-opacity=".2"/><rect x="185.0" y="94" width="36" height="4" fill="#000" fill-opacity=".2"/><circle cx="194.0" cy="85.0" r="5" fill="#fff" fill-opacity=".28"/><circle cx="212.0" cy="85.0" r="5" fill="#fff" fill-opacity=".28"/><rect x="251.0" y="60" width="52" height="158" rx="14" fill="#fff" fill-opacity="0.06" stroke="#cbd5e1" stroke-opacity="0.55" stroke-width="3"/><rect x="246.0" y="55" width="62" height="10" rx="3" fill="#64748b"/><rect x="256.0" y="178" width="42" height="30" rx="5" fill="#facc15"/><rect x="259.0" y="180" width="36" height="4" fill="#fff" fill-opacity=".2"/><rect x="259.0" y="202" width="36" height="4" fill="#000" fill-opacity=".2"/><circle cx="268.0" cy="193.0" r="5" fill="#fff" fill-opacity=".28"/><circle cx="286.0" cy="193.0" r="5" fill="#fff" fill-opacity=".28"/><rect x="256.0" y="144" width="42" height="30" rx="5" fill="#38bdf8"/><rect x="259.0" y="146" width="36" height="4" fill="#fff" fill-opacity=".2"/><rect x="259.0" y="168" width="36" height="4" fill="#000" fill-opacity=".2"/><circle cx="268.0" cy="159.0" r="5" fill="#fff" fill-opacity=".28"/><circle cx="286.0" cy="159.0" r="5" fill="#fff" fill-opacity=".28"/><rect x="325.0" y="60" width="52" height="158" rx="14" fill="#22c55e" fill-opacity="0.14" stroke="#22c55e" stroke-opacity="1" stroke-width="3"/><rect x="320.0" y="55" width="62" height="10" rx="3" fill="#64748b"/><rect x="330.0" y="178" width="42" height="30" rx="5" fill="#16a34a"/><rect x="333.0" y="180" width="36" height="4" fill="#fff" fill-opacity=".2"/><rect x="333.0" y="202" width="36" height="4" fill="#000" fill-opacity=".2"/><circle cx="342.0" cy="193.0" r="5" fill="#fff" fill-opacity=".28"/><circle cx="360.0" cy="193.0" r="5" fill="#fff" fill-opacity=".28"/><rect x="330.0" y="144" width="42" height="30" rx="5" fill="#16a34a"/><rect x="333.0" y="146" width="36" height="4" fill="#fff" fill-opacity=".2"/><rect x="333.0" y="168" width="36" height="4" fill="#000" fill-opacity=".2"/><circle cx="342.0" cy="159.0" r="5" fill="#fff" fill-opacity=".28"/><circle cx="360.0" cy="159.0" r="5" fill="#fff" fill-opacity=".28"/><rect x="330.0" y="110" width="42" height="30" rx="5" fill="#16a34a"/><rect x="333.0" y="112" width="36" height="4" fill="#fff" fill-opacity=".2"/><rect x="333.0" y="134" width="36" height="4" fill="#000" fill-opacity=".2"/><circle cx="342.0" cy="125.0" r="5" fill="#fff" fill-opacity=".28"/><circle cx="360.0" cy="125.0" r="5" fill="#fff" fill-opacity=".28"/><rect x="330.0" y="76" width="42" height="30" rx="5" fill="#16a34a"/><rect x="333.0" y="78" width="36" height="4" fill="#fff" fill-opacity=".2"/><rect x="333.0" y="100" width="36" height="4" fill="#000" fill-opacity=".2"/><circle cx="342.0" cy="91.0" r="5" fill="#fff" fill-opacity=".28"/><circle cx="360.0" cy="91.0" r="5" fill="#fff" fill-opacity=".28"/><rect x="399.0" y="60" width="52" height="158" rx="14" fill="#fff" fill-opacity="0.06" stroke="#cbd5e1" stroke-opacity="0.55" stroke-width="3"/><rect x="394.0" y="55" width="62" height="10" rx="3" fill="#64748b"/><path d="M213.0 20 Q314.0 -15 425.0 42" stroke="#facc15" stroke-width="5" fill="none" stroke-linecap="round" stroke-dasharray="2 12"/><path d="M414.0 30 L425.0 46 L434.0 28" stroke="#facc15" stroke-width="5" fill="none" stroke-linecap="round" stroke-linejoin="round"/>
  <g fill="#86efac"><rect x="333.0" y="40" width="7" height="7"/><rect x="359.0" y="32" width="6" height="6"/><rect x="123.0" y="36" width="7" height="7"/></g>
</svg>
